<svg xmlns="http://www.w3.org/2000/svg" width="8.525" height="10.656" viewBox="0 0 8.525 10.656"><defs><style>.a{fill:#fff;}</style></defs><path class="a" d="M244.3,179.508a.337.337,0,0,0,.468,0l3.958-4.1c.165-.171.025-.431-.234-.431H245.94V171.24a.235.235,0,0,0-.234-.235h-2.365a.235.235,0,0,0-.234.235v3.733h-2.527c-.258,0-.4.26-.234.431Zm4.215,1.088h-7.962a.261.261,0,0,0-.282.234v.6a.261.261,0,0,0,.282.234h7.962a.262.262,0,0,0,.282-.234v-.6A.261.261,0,0,0,248.52,180.6Z" transform="translate(-240.276 -171.005)"/></svg>