<svg xmlns="http://www.w3.org/2000/svg" width="20" height="19.999" viewBox="0 0 20 19.999">
  <g id="首页" transform="translate(-37 -740)">
    <path id="路径_5048" data-name="路径 5048" d="M73.112,62.407a1.6,1.6,0,0,0-2.155,0l-8.714,8.274a.8.8,0,1,0,1.077,1.194l.139-.132V80.38a1.608,1.608,0,0,0,1.608,1.61h4.679v-4.84a1.132,1.132,0,0,1,1.133-1.134h2.2a1.132,1.132,0,0,1,1.133,1.134v4.84H79a1.608,1.608,0,0,0,1.608-1.61v-8.53a.8.8,0,1,0,1.1-1.168l-8.6-8.274Z" transform="translate(-24.977 678.009)" fill="#617def"/>
    <line id="直线_176" data-name="直线 176" x2="5" transform="translate(44.5 749.5)" fill="none" stroke="#fff" stroke-linecap="round" stroke-width="2"/>
  </g>
</svg>
