<svg xmlns="http://www.w3.org/2000/svg" width="20" height="20" viewBox="0 0 20 20">
  <g id="专享" transform="translate(-133 -741)">
    <rect id="矩形_3293" data-name="矩形 3293" width="20" height="20" transform="translate(133 741)" fill="#ec1f1f" opacity="0"/>
    <g id="组_7583" data-name="组 7583" transform="translate(-692 -118.719)">
      <path id="路径_4852" data-name="路径 4852" d="M84.384,128.847l-2.272-3.985a1.7,1.7,0,0,0-1.484-.834H68.53a1.7,1.7,0,0,0-1.484.834l-2.269,3.985a1.5,1.5,0,0,0,.093,1.627L72.511,141a2.6,2.6,0,0,0,4.137,0l1.037-1.43,1.846-2.542,2.65-3.651,1.66-2.287.446-.617a1.493,1.493,0,0,0,.1-1.627Z" transform="translate(760.42 736.691)" fill="#617def"/>
      <path id="路径_4851" data-name="路径 4851" d="M88.084,148.052l-3.013,4.159a1.588,1.588,0,0,1-2.554,0L79.5,148.05a.808.808,0,0,1,1.309-.948l2.983,4.119,2.982-4.119a.808.808,0,0,1,1.309.948Z" transform="translate(751.289 717.525)" fill="#fff"/>
    </g>
  </g>
</svg>
