<svg xmlns="http://www.w3.org/2000/svg" width="20" height="20" viewBox="0 0 20 20"><defs><style>.a{fill:#ec1f1f;opacity:0;}.b{fill:#8c9ba9;}.c{fill:#fff;}</style></defs><g transform="translate(-133 -741)"><rect class="a" width="20" height="20" transform="translate(133 741)"/><g transform="translate(-692 -118.719)"><path class="b" d="M84.384,128.847l-2.272-3.985a1.7,1.7,0,0,0-1.484-.834H68.53a1.7,1.7,0,0,0-1.484.834l-2.269,3.985a1.5,1.5,0,0,0,.093,1.627L72.511,141a2.6,2.6,0,0,0,4.137,0l1.037-1.43,1.846-2.542,2.65-3.651,1.66-2.287.446-.617a1.493,1.493,0,0,0,.1-1.627Z" transform="translate(760.42 736.691)"/><path class="c" d="M88.084,148.052l-3.013,4.159a1.588,1.588,0,0,1-2.554,0L79.5,148.05a.808.808,0,0,1,1.309-.948l2.983,4.119,2.982-4.119a.808.808,0,0,1,1.309.948Z" transform="translate(751.289 717.525)"/></g></g></svg>