<svg xmlns="http://www.w3.org/2000/svg" width="14" height="14.005" viewBox="0 0 14 14.005"><defs><style>.a{fill:#fff;}</style></defs><path class="a" d="M10.52,1.042a6.889,6.889,0,0,0-5.3.33,7.025,7.025,0,0,0,.789,12.914,6.888,6.888,0,0,0,4.518,0,3.106,3.106,0,0,1,.414-4.345,3.038,3.038,0,0,1,3.9,0,7.017,7.017,0,0,0-4.309-8.9Zm1.066,8.005a.383.383,0,0,1-.545,0L8.6,6.572,6.152,9.047a.383.383,0,0,1-.545,0l-2.173-2.2a.39.39,0,0,1,0-.549.383.383,0,0,1,.545,0l1.9,1.924L8.324,5.75a.382.382,0,0,1,.545,0L11.586,8.5a.39.39,0,0,1,0,.545Zm1.4,4.726v-.4H11.81a.39.39,0,0,1-.277-.118.405.405,0,0,1-.115-.283.4.4,0,0,1,.39-.4h1.179v-.8H11.81a.39.39,0,0,1-.277-.117.407.407,0,0,1,0-.566.39.39,0,0,1,.277-.118h.234l-.118-.12A.406.406,0,0,1,12,10.289a.39.39,0,0,1,.467,0l.545.561a.4.4,0,0,1,.078.12h.539a.4.4,0,0,1,.078-.12l.545-.561a.39.39,0,0,1,.545.006.407.407,0,0,1,0,.555l-.118.12h.234a.4.4,0,1,1,0,.8H13.742v.8h1.176a.4.4,0,1,1,0,.8H13.742v.4a.4.4,0,0,1-.39.4.39.39,0,0,1-.277-.118.405.405,0,0,1-.115-.283h.026Zm0,0" transform="translate(-1.319 -0.662)"/></svg>