<svg xmlns="http://www.w3.org/2000/svg" width="13.212" height="15.214" viewBox="0 0 13.212 15.214"><defs><style>.a{fill:#fff;}</style></defs><path class="a" d="M129.037,63.136a3.8,3.8,0,1,1-3.867,3.8A3.835,3.835,0,0,1,129.037,63.136Zm0,0a3.8,3.8,0,1,1-3.867,3.8A3.835,3.835,0,0,1,129.037,63.136Zm-1.45,8.875h3.223a4.954,4.954,0,0,1,4.995,4.913v.316c0,1.069-2.237,1.11-4.995,1.11h-3.223c-2.759,0-4.995,0-4.995-1.11v-.316A4.954,4.954,0,0,1,127.587,72.011Zm0,0" transform="translate(-122.592 -63.136)"/></svg>