<svg xmlns="http://www.w3.org/2000/svg" width="14.494" height="15.347" viewBox="0 0 14.494 15.347"><defs><style>.a{fill:#fff;}</style></defs><path class="a" d="M41.035,5.214a9.343,9.343,0,0,0-1.26-1.067q-.1-.071-.2-.14a1.708,1.708,0,0,0,1.027-1.5A2,2,0,0,0,38.426.743a2.052,2.052,0,0,0-.75.131,1.238,1.238,0,0,0-.259.114.173.173,0,0,1-.152-.044A2.29,2.29,0,0,0,36.844.5,2.1,2.1,0,0,0,35.683,0a2.1,2.1,0,0,0-1.171.5,2.089,2.089,0,0,0-.42.446.176.176,0,0,1-.152.044,1.222,1.222,0,0,0-.259-.114,2.044,2.044,0,0,0-.75-.131A2.008,2.008,0,0,0,30.75,2.511a1.705,1.705,0,0,0,1.027,1.5,2.285,2.285,0,0,0-.2.14,9.485,9.485,0,0,0-1.26,1.067,5.72,5.72,0,0,0-1.877,4.007c0,4.148,3.253,6.125,7.175,6.125h.143c3.923,0,7.175-1.978,7.175-6.125A5.83,5.83,0,0,0,41.035,5.214Zm-3.289,3.8h-1.5v.569h1.1a.569.569,0,1,1,0,1.137h-1.1v.866a.581.581,0,0,1-1.161,0v-.866H33.931a.569.569,0,1,1,0-1.137h1.153V9.012H33.591a.569.569,0,1,1,0-1.137h.68L33.189,6.816a.557.557,0,0,1,0-.8.586.586,0,0,1,.813,0l1.655,1.62L37.31,6.02a.586.586,0,0,1,.813,0,.557.557,0,0,1,0,.8L37.042,7.875h.679a.574.574,0,0,1,.581.569.551.551,0,0,1-.554.569Z" transform="translate(-28.444)"/></svg>